<svg width="49" height="47" viewBox="0 0 49 47" fill="none" xmlns="http://www.w3.org/2000/svg">
<path d="M46.6815 45C42.9641 45 42.9641 38.5958 39.2466 38.5958C35.5292 38.5958 35.5292 45 31.8117 45C28.0943 45 28.0943 38.5958 24.3769 38.5958C20.6594 38.5958 20.6594 45 16.9241 45C13.1888 45 13.1888 38.5958 9.47132 38.5958C5.75387 38.5958 5.736 45 2.01855 45" stroke="#FF7A4A" stroke-width="1.78723" stroke-miterlimit="10" stroke-linecap="round"/>
<path d="M46.6809 8.40425C42.9634 8.40425 42.9634 2 39.246 2C35.5285 2 35.5285 8.40425 31.8111 8.40425C28.0936 8.40425 28.0757 2 24.3583 2C20.6409 2 20.6409 8.40425 16.9055 8.40425C13.1702 8.40425 13.1881 2 9.45277 2C5.71745 2 5.73532 8.40425 2 8.40425" stroke="#FF7A4A" stroke-width="1.78723" stroke-miterlimit="10" stroke-linecap="round"/>
<path d="M46.6815 26.7021C42.9641 26.7021 42.9641 20.2979 39.2466 20.2979C35.5292 20.2979 35.5292 26.7021 31.8117 26.7021C28.0943 26.7021 28.0943 20.2979 24.3769 20.2979C20.6594 20.2979 20.6594 26.7021 16.9241 26.7021C13.1888 26.7021 13.1888 20.2979 9.47132 20.2979C5.75387 20.2979 5.736 26.7021 2.01855 26.7021" stroke="#FF7A4A" stroke-width="1.78723" stroke-miterlimit="10" stroke-linecap="round"/>
</svg>
