<svg width="921" height="306" viewBox="0 0 921 306" fill="none" xmlns="http://www.w3.org/2000/svg">
<path fill-rule="evenodd" clip-rule="evenodd" d="M41.1621 76.9043V94.6205H64.7569H88.3517V169.448V244.276H109.115H129.878V169.448V94.6205H153.473H177.068V76.9043V59.188H109.115H41.1621V76.9043ZM223.786 151.71V244.276H244.549H265.313V208.144V172.012L277.228 172.014L289.143 172.015L305.791 207.563C314.947 227.114 322.605 243.375 322.81 243.698C323.102 244.159 328.116 244.259 346.298 244.164L369.415 244.043L349.459 204.181C338.483 182.257 329.5 164.165 329.496 163.975C329.493 163.785 330.855 163.019 332.523 162.271C343.823 157.21 352.743 147.806 357.117 136.347C362.262 122.869 361.571 104.123 355.4 89.7765C353.207 84.6761 349.942 79.8503 345.801 75.5858C338.146 67.703 328.701 62.9844 315.569 60.4832C310.561 59.5288 308.859 59.4878 267.082 59.3186L223.786 59.1428V151.71ZM415.375 151.732V244.276H436.375H457.374V151.732V59.188H436.375H415.375V151.732ZM504.57 59.5377C504.573 59.7303 513.354 101.322 524.082 151.965L543.588 244.043L564.147 244.164L584.707 244.286L585.128 242.299C585.36 241.207 590.524 216.029 596.603 186.349C602.683 156.668 607.767 132.384 607.901 132.385C608.035 132.386 613.347 157.562 619.706 188.331L631.268 244.275L651.816 244.275L672.365 244.276L691.656 152.548C702.266 102.098 711.041 60.4529 711.155 60.0039C711.352 59.2365 710.184 59.188 691.521 59.188C673.035 59.188 671.661 59.244 671.424 60.0039C671.218 60.6655 650.402 161.668 649.836 164.755C649.745 165.251 645.016 142.068 639.328 113.238C633.639 84.408 628.89 60.4524 628.774 60.0039C628.576 59.2426 627.181 59.188 607.862 59.188H587.163L586.915 60.237C586.778 60.8142 581.782 84.1204 575.814 112.029C569.846 139.939 564.823 163.324 564.651 163.997C564.448 164.8 560.955 147.315 554.516 113.254C549.113 84.6714 544.577 60.8137 544.438 60.237L544.185 59.188H524.374C513.478 59.188 504.566 59.3452 504.57 59.5377ZM748.72 151.615L721.792 244.043L742.551 244.164C753.968 244.231 763.418 244.179 763.55 244.048C763.682 243.918 766.151 235.366 769.036 225.045L774.281 206.279H799.952H825.624L830.57 225.278L835.516 244.276H856.494C876.243 244.276 877.458 244.228 877.246 243.46C877.123 243.012 865.166 201.367 850.676 150.916L824.329 59.188H799.989H775.647L748.72 151.615ZM48.2405 76.9043V87.6272H71.8353H95.4301V162.455V237.283H109.115H122.8V162.455V87.6272H146.395H169.99V76.9043V66.1813H109.115H48.2405V76.9043ZM756.58 151.149C742.977 197.882 731.756 236.38 731.646 236.7C731.488 237.157 734.301 237.283 744.69 237.283H757.935L758.419 235.534C758.685 234.573 761.101 225.919 763.788 216.303L768.672 198.82H800.012H831.351L836.306 217.935L841.261 237.05L854.522 237.173L867.783 237.297L860.379 211.531C856.306 197.36 845.251 158.859 835.812 125.974L818.65 66.1813H799.982H781.314L756.58 151.149ZM230.864 151.965V237.283H244.549H258.234V200.918V164.553H275.873C289.429 164.553 293.614 164.688 293.959 165.136C294.206 165.456 301.929 181.818 311.123 201.495L327.839 237.273L342.792 237.278L357.746 237.283L343.325 208.494C335.393 192.66 326.618 175.062 323.823 169.387L318.743 159.068L321.875 158.239C337.324 154.152 347.602 144.13 351.737 129.12C352.709 125.591 352.828 124.137 352.824 115.833C352.819 107.926 352.663 105.858 351.799 102.224C347.046 82.241 333.707 70.6187 311.777 67.3529C307.893 66.7748 300.447 66.6526 268.97 66.6503L230.864 66.6475V151.965ZM422.926 151.965V237.283H436.375H449.824V151.965V66.6475H436.375H422.926V151.965ZM513.551 66.7641C513.562 66.8279 521.693 105.169 531.62 151.965L549.668 237.05L564.119 237.173L578.57 237.296L579.05 235.075C579.314 233.853 585.065 205.79 591.83 172.712C598.595 139.634 604.242 112.098 604.377 111.521C604.603 110.559 604.891 110.472 607.867 110.472C610.842 110.472 611.13 110.559 611.359 111.521C611.496 112.098 617.406 140.63 624.492 174.926L637.377 237.283H651.835H666.294L666.797 234.835C667.074 233.489 674.763 196.932 683.884 153.597C693.005 110.262 700.85 72.9708 701.317 70.7269L702.166 66.6475L689.84 66.6494L677.513 66.6508L665.215 126.442L652.918 186.232L649.525 186.369C647.659 186.444 646.132 186.355 646.132 186.17C646.132 185.679 623.002 68.4298 622.713 67.4569C622.486 66.6904 621.469 66.6428 607.764 66.7575L593.06 66.8806L580.279 126.556L567.499 186.232L564.109 186.369C562.245 186.444 560.719 186.362 560.719 186.186C560.719 185.653 538.52 68.3413 538.253 67.4634C538.025 66.7137 537.013 66.6475 525.767 66.6475C519.037 66.6475 513.539 66.7002 513.551 66.7641ZM258.234 115.607V144.599L277.7 144.383C298.804 144.147 302.579 143.794 309.276 141.426C317.595 138.484 322.364 133.716 324.846 125.857C325.801 122.835 325.946 121.442 325.917 115.6C325.886 109.643 325.738 108.411 324.67 105.23C321.671 96.3007 315.193 90.66 304.922 88.0366C301.186 87.0818 299.626 87.0067 279.587 86.8165L258.234 86.6137V115.607ZM785.923 135.067C779.625 158.08 774.475 177.17 774.48 177.49C774.486 177.949 779.903 178.073 799.97 178.073C820.753 178.073 825.453 177.96 825.453 177.458C825.453 177.12 820.797 159.025 815.107 137.247C809.417 115.469 804.508 96.6541 804.197 95.4364L803.633 93.2218L800.504 93.2242L797.375 93.226L785.923 135.067ZM265.313 115.566V137.046H279.6C297.881 137.046 303.566 136.366 309.65 133.454C315.665 130.574 318.155 126.106 318.529 117.522C319.077 104.951 314.787 98.4523 303.774 95.1706C301.902 94.6126 297.67 94.4275 283.363 94.2764L265.313 94.0857V115.566ZM792.209 140.208C787.821 156.29 784.139 169.711 784.028 170.031C783.868 170.49 787.25 170.614 799.92 170.614C808.772 170.614 816.015 170.473 816.015 170.3C816.015 169.54 800.779 111.602 800.5 111.302C800.328 111.118 796.598 124.125 792.209 140.208Z" fill="#38455A"/>
</svg>
