<svg width="856" height="306" viewBox="0 0 856 306" fill="none" xmlns="http://www.w3.org/2000/svg">
<path fill-rule="evenodd" clip-rule="evenodd" d="M0 77.7615V95.4777H23.5948H47.1896V170.305V245.133H67.9529H88.7159V170.305V95.4777H112.311H135.906V77.7615V60.0452H67.9529H0V77.7615ZM182.624 152.567V245.133H203.387H224.151V209.001V172.869L236.066 172.871L247.981 172.872L264.629 208.42C273.785 227.971 281.443 244.232 281.648 244.555C281.94 245.016 286.954 245.116 305.136 245.021L328.253 244.9L308.297 205.038C297.321 183.114 288.338 165.022 288.334 164.832C288.331 164.642 289.693 163.876 291.361 163.128C302.661 158.067 311.581 148.663 315.955 137.204C321.1 123.726 320.409 104.98 314.238 90.6337C312.045 85.5333 308.78 80.7075 304.639 76.443C296.984 68.5602 287.539 63.8416 274.407 61.3404C269.399 60.386 267.697 60.345 225.92 60.1758L182.624 60V152.567ZM374.213 152.589V245.133H395.213H416.212V152.589V60.0452H395.213H374.213V152.589ZM463.408 60.3949C463.411 60.5875 472.192 102.179 482.92 152.822L502.426 244.9L522.985 245.021L543.545 245.143L543.966 243.156C544.198 242.064 549.362 216.886 555.441 187.206C561.521 157.525 566.605 133.241 566.739 133.242C566.873 133.243 572.185 158.419 578.544 189.188L590.106 245.132H610.654L631.203 245.133L650.494 153.405C661.104 102.955 669.879 61.3101 669.993 60.8611C670.19 60.0937 669.022 60.0452 650.359 60.0452C631.873 60.0452 630.499 60.1012 630.262 60.8611C630.056 61.5227 609.24 162.525 608.674 165.612C608.583 166.108 603.854 142.925 598.166 114.095C592.477 85.2652 587.728 61.3096 587.612 60.8611C587.414 60.0998 586.019 60.0452 566.7 60.0452H546.001L545.753 61.0942C545.616 61.6714 540.62 84.9776 534.652 112.886C528.684 140.796 523.661 164.181 523.489 164.854C523.286 165.657 519.793 148.172 513.354 114.111C507.951 85.5286 503.415 61.6709 503.276 61.0942L503.023 60.0452H483.212C472.316 60.0452 463.404 60.2024 463.408 60.3949ZM707.558 152.472L680.63 244.9L701.389 245.021C712.806 245.088 722.256 245.036 722.388 244.905C722.52 244.775 724.989 236.223 727.874 225.902L733.119 207.136H758.79H784.462L789.408 226.135L794.354 245.133H815.332C835.081 245.133 836.296 245.085 836.084 244.317C835.961 243.869 824.004 202.224 809.514 151.773L783.167 60.0452H758.827H734.485L707.558 152.472ZM7.0784 77.7615V88.4844H30.6732H54.268V163.312V238.14H67.9529H81.6379V163.312V88.4844H105.233H128.828V77.7615V67.0385H67.9529H7.0784V77.7615ZM715.418 152.006C701.815 198.739 690.594 237.237 690.484 237.557C690.326 238.014 693.139 238.14 703.528 238.14H716.773L717.257 236.391C717.523 235.43 719.939 226.776 722.626 217.16L727.51 199.677H758.85H790.189L795.144 218.792L800.099 237.907L813.36 238.03L826.621 238.154L819.217 212.388C815.144 198.217 804.089 159.716 794.65 126.831L777.488 67.0385H758.82H740.152L715.418 152.006ZM189.702 152.822V238.14H203.387H217.072V201.775V165.41H234.711C248.267 165.41 252.452 165.545 252.797 165.993C253.044 166.313 260.767 182.675 269.961 202.352L286.677 238.13L301.63 238.135L316.584 238.14L302.163 209.351C294.231 193.517 285.456 175.919 282.661 170.244L277.581 159.925L280.713 159.096C296.162 155.009 306.44 144.987 310.575 129.977C311.547 126.448 311.666 124.994 311.662 116.69C311.657 108.783 311.501 106.715 310.637 103.081C305.884 83.0982 292.545 71.4759 270.615 68.2101C266.731 67.632 259.285 67.5098 227.808 67.5075L189.702 67.5047V152.822ZM381.764 152.822V238.14H395.213H408.662V152.822V67.5047H395.213H381.764V152.822ZM472.389 67.6213C472.4 67.6851 480.531 106.026 490.458 152.822L508.506 237.907L522.957 238.03L537.408 238.153L537.888 235.932C538.152 234.71 543.903 206.647 550.668 173.569C557.433 140.491 563.08 112.955 563.215 112.378C563.441 111.416 563.729 111.329 566.705 111.329C569.68 111.329 569.968 111.416 570.197 112.378C570.334 112.955 576.244 141.487 583.33 175.783L596.215 238.14H610.673H625.132L625.635 235.692C625.912 234.346 633.601 197.789 642.722 154.454C651.843 111.119 659.688 73.828 660.155 71.5841L661.004 67.5047L648.678 67.5066L636.351 67.508L624.053 127.299L611.756 187.089L608.363 187.226C606.497 187.301 604.97 187.212 604.97 187.027C604.97 186.536 581.84 69.287 581.551 68.3141C581.324 67.5476 580.307 67.5 566.602 67.6147L551.898 67.7378L539.117 127.413L526.337 187.089L522.947 187.226C521.083 187.301 519.557 187.219 519.557 187.043C519.557 186.51 497.358 69.1985 497.091 68.3206C496.863 67.5709 495.851 67.5047 484.605 67.5047C477.875 67.5047 472.377 67.5574 472.389 67.6213ZM217.072 116.464V145.456L236.538 145.24C257.642 145.004 261.417 144.651 268.114 142.283C276.433 139.341 281.202 134.573 283.684 126.714C284.639 123.692 284.784 122.299 284.755 116.457C284.724 110.5 284.576 109.268 283.508 106.087C280.509 97.1579 274.031 91.5172 263.76 88.8938C260.024 87.939 258.464 87.8639 238.425 87.6737L217.072 87.4709V116.464ZM744.761 135.924C738.463 158.937 733.313 178.027 733.318 178.347C733.324 178.806 738.741 178.93 758.808 178.93C779.591 178.93 784.291 178.817 784.291 178.315C784.291 177.977 779.635 159.882 773.945 138.104C768.255 116.326 763.346 97.5113 763.035 96.2936L762.471 94.079L759.342 94.0814L756.213 94.0832L744.761 135.924ZM224.151 116.423V137.903H238.438C256.719 137.903 262.404 137.223 268.488 134.311C274.503 131.431 276.993 126.963 277.367 118.379C277.915 105.808 273.625 99.3095 262.612 96.0278C260.74 95.4698 256.508 95.2847 242.201 95.1336L224.151 94.9429V116.423ZM751.047 141.065C746.659 157.147 742.977 170.568 742.866 170.888C742.706 171.347 746.088 171.471 758.758 171.471C767.61 171.471 774.853 171.33 774.853 171.157C774.853 170.397 759.617 112.459 759.338 112.159C759.166 111.975 755.436 124.982 751.047 141.065Z" fill="#38455A"/>
</svg>
