<svg width="1440" height="292" viewBox="0 0 1440 292" fill="none" xmlns="http://www.w3.org/2000/svg">
<g clip-path="url(#clip0_582_83)">
<mask id="mask0_582_83" style="mask-type:luminance" maskUnits="userSpaceOnUse" x="0" y="0" width="1440" height="292">
<path d="M1440 0H0V292H1440V0Z" fill="white"/>
</mask>
<g mask="url(#mask0_582_83)">
<path d="M-26.9986 7.00023C-5.59664 7.13197 -64.2145 0.944401 -27 7C215.383 46.4422 247.16 237.175 418.001 254C521.673 264.207 702.873 197.125 819.085 147.111C881.523 120.241 921.449 95.4138 1014 70.1436C1069.41 55.0136 1125.14 39.7998 1194.09 38.9972C1339.41 37.308 1444.99 100.799 1473 118.786" stroke="#EBE6DD" stroke-width="2" stroke-miterlimit="10"/>
<path d="M-38 102.369C-1.85924 102.544 142.203 46.6609 216 57.3615C498.669 98.3453 480.527 246.187 703.774 255.479C765.985 258.067 811.668 250.75 882.775 239.363C1092.38 205.793 1139.48 140.704 1311.06 130.699C1346.32 128.641 1399.17 128.194 1467 137.684" stroke="#EBE6DD" stroke-width="2" stroke-miterlimit="10"/>
<path d="M-26 128C143.249 198.922 213.083 225.811 296 211.707C357.197 201.299 433.664 191.015 678 103.509C854.64 40.2512 908.572 28.378 954 26.2843C981.903 24.9965 1065.11 25.7713 1180.09 80.9082C1238.83 109.073 1255.14 133.741 1336.03 168.51C1390.14 191.769 1438.36 204.594 1470 211.707" stroke="#EBE6DD" stroke-width="2" stroke-miterlimit="10"/>
<path d="M1470 161.744C1300.75 229.172 1226.92 225.525 1144 212.115C1082.8 202.221 1006.34 192.443 762 109.249C585.36 49.1087 525.428 19.1062 480 17.1157C452.097 15.8914 420.988 -2.51474 306 49.9052C247.261 76.6818 184.864 137.992 103.971 171.047C49.8624 193.16 1.64497 205.353 -30 212.115" stroke="#EBE6DD" stroke-width="2" stroke-miterlimit="10"/>
</g>
</g>
<defs>
<clipPath id="clip0_582_83">
<rect width="1440" height="292" fill="white"/>
</clipPath>
</defs>
</svg>
