<svg width="1270" height="375" viewBox="0 0 1270 375" fill="none" xmlns="http://www.w3.org/2000/svg">
<g clip-path="url(#clip0_466_161)">
<path d="M-3 18C15.2487 18.1985 42.9822 20.0844 74.7138 29.2071C281.386 88.6266 286.713 338.63 432.384 363.977C520.781 379.353 619.337 304.422 718.427 229.077C771.666 188.597 805.71 151.195 884.622 113.125C931.868 90.332 979.386 67.4124 1038.18 66.2033C1162.09 63.6587 1252.11 159.307 1276 186.405" stroke="#EBE6DD" stroke-width="2" stroke-miterlimit="10"/>
<path d="M-5 23.7618C9.49086 18.8352 31.7881 12.3955 59.5077 9.08109C252.872 -14.0478 310.854 162.832 493.298 182.007C680.296 201.659 795.624 34.3535 943.917 108.153C955.641 113.99 969.805 124.347 998.141 145.08C1119.05 233.534 1155.03 302.335 1241.21 313.503C1254.42 315.214 1265.53 315.151 1273 314.8" stroke="#EBE6DD" stroke-width="2" stroke-miterlimit="10"/>
<path d="M-7 7C23.7883 7.34261 78.8818 10.6245 141.749 31.5781C382.555 111.831 429.622 348.785 619.806 366.98C672.804 372.047 711.722 357.72 772.297 335.423C950.862 269.686 990.978 142.234 1137.15 122.642C1167.19 118.611 1212.22 117.737 1270 136.319" stroke="#EBE6DD" stroke-width="2" stroke-miterlimit="10"/>
<path d="M-5 148.652C139.539 221.735 244.908 222.014 315.719 207.481C367.981 196.757 372.445 183.911 581.109 93.7405C731.959 28.5564 762.69 20.9737 801.486 18.8162C825.315 17.4892 930.224 11.6488 1028.43 68.4648C1078.59 97.4867 1092.51 122.907 1161.59 158.735C1207.81 182.702 1248.98 195.917 1276 203.247" stroke="#EBE6DD" stroke-width="2" stroke-miterlimit="10"/>
</g>
<defs>
<clipPath id="clip0_466_161">
<rect width="1270" height="375" fill="white"/>
</clipPath>
</defs>
</svg>
