<svg width="1440" height="380" viewBox="0 0 1440 380" fill="none" xmlns="http://www.w3.org/2000/svg">
<g clip-path="url(#clip0_543_250)">
<path d="M-26.7598 26.1104C-5.36129 26.303 27.1591 28.1331 64.3676 36.9859C306.712 94.6472 312.959 337.254 483.773 361.851C587.428 376.772 702.995 304.058 819.188 230.941C881.616 191.66 921.536 155.364 1014.07 118.421C1069.47 96.3021 1125.19 74.0607 1194.13 72.8874C1339.43 70.418 1444.99 163.236 1473 189.532" stroke="#EBE6DD" stroke-width="2" stroke-miterlimit="10"/>
<path d="M-29.9043 31.2963C-12.8865 26.5065 13.2989 20.2457 45.8522 17.0233C272.935 -5.46328 341.028 166.505 555.287 185.147C774.893 204.254 910.333 41.5939 1084.49 113.344C1098.25 119.019 1114.89 129.088 1148.16 149.246C1290.16 235.243 1332.41 302.134 1433.62 312.992C1449.14 314.655 1462.18 314.594 1470.95 314.252" stroke="#EBE6DD" stroke-width="2" stroke-miterlimit="10"/>
<path d="M-32 15.2441C4.13256 15.5769 68.7891 18.7642 142.569 39.1142C425.174 117.055 480.411 347.184 703.607 364.855C765.804 369.776 811.477 355.862 882.568 334.207C1092.13 270.364 1139.21 146.582 1310.76 127.554C1346.01 123.64 1398.85 122.791 1466.66 140.838" stroke="#EBE6DD" stroke-width="2" stroke-miterlimit="10"/>
<path d="M-29.9043 152.599C139.318 223.491 262.681 223.763 345.585 209.665C406.772 199.262 411.998 186.802 656.296 99.3336C832.908 36.1033 868.886 28.7478 914.307 26.655C942.206 25.3678 1065.03 19.7024 1180 74.8156C1238.73 102.968 1255.03 127.626 1335.91 162.38C1390.01 185.629 1438.22 198.448 1469.86 205.558" stroke="#EBE6DD" stroke-width="2" stroke-miterlimit="10"/>
</g>
<defs>
<clipPath id="clip0_543_250">
<rect width="1440" height="380" fill="white"/>
</clipPath>
</defs>
</svg>
